<svg width="64" height="64" viewBox="0 0 64 64" fill="none" xmlns="http://www.w3.org/2000/svg">
  <!-- Outer Circle -->
  <circle cx="32" cy="32" r="28" fill="url(#gradient1)" stroke="#1e293b" stroke-width="2"/>
  
  <!-- Wheel Segments -->
  <path d="M32 32 L60 32 A28 28 0 0 1 46 54.39 Z" fill="#ef4444" opacity="0.9"/>
  <path d="M32 32 L46 54.39 A28 28 0 0 1 18 54.39 Z" fill="#f97316" opacity="0.9"/>
  <path d="M32 32 L18 54.39 A28 28 0 0 1 4 32 Z" fill="#eab308" opacity="0.9"/>
  <path d="M32 32 L4 32 A28 28 0 0 1 18 9.61 Z" fill="#22c55e" opacity="0.9"/>
  <path d="M32 32 L18 9.61 A28 28 0 0 1 46 9.61 Z" fill="#3b82f6" opacity="0.9"/>
  <path d="M32 32 L46 9.61 A28 28 0 0 1 60 32 Z" fill="#8b5cf6" opacity="0.9"/>
  
  <!-- Inner Circle -->
  <circle cx="32" cy="32" r="12" fill="#1e293b" stroke="#ffffff" stroke-width="1.5"/>
  
  <!-- Center Star -->
  <path d="M32 24 L34 29 L39 30 L35.5 33.5 L36.5 38.5 L32 36 L27.5 38.5 L28.5 33.5 L25 30 L30 29 Z" fill="#fbbf24" stroke="#ffffff" stroke-width="0.8"/>
  
  <!-- Gradient Definition -->
  <defs>
    <radialGradient id="gradient1" cx="50%" cy="50%" r="50%">
      <stop offset="0%" style="stop-color:#ffffff;stop-opacity:0.2" />
      <stop offset="100%" style="stop-color:#000000;stop-opacity:0.1" />
    </radialGradient>
  </defs>
</svg>
